<svg width="98" height="98" viewBox="0 0 98 98" fill="none" xmlns="http://www.w3.org/2000/svg">
<g filter="url(#filter0_d_339_711)">
<path d="M48.73 91.459C73.9857 91.459 94.4595 70.9852 94.4595 45.7295C94.4595 20.4739 73.9857 0.00012207 48.73 0.00012207C23.4743 0.00012207 3.00046 20.4739 3.00046 45.7295C3.00046 70.9852 23.4743 91.459 48.73 91.459Z" fill="#00324D"/>
<g opacity="0.24">
<mask id="mask0_339_711" style="mask-type:luminance" maskUnits="userSpaceOnUse" x="3" y="0" width="92" height="92">
<path d="M48.7295 91.4588C73.9853 91.4588 94.4591 70.9851 94.4591 45.7294C94.4591 20.4738 73.9853 0 48.7295 0C23.4738 0 3 20.4738 3 45.7294C3 70.9851 23.4738 91.4588 48.7295 91.4588Z" fill="white"/>
</mask>
<g mask="url(#mask0_339_711)">
<path opacity="0.24" d="M180.558 128.739C180.63 130.987 180.387 132.943 179.842 134.612C177.856 138.273 175.517 140.149 172.817 140.232C167.569 140.397 160.831 133.554 152.597 119.717C147.688 111.472 143.01 104.643 138.567 99.2324C134.123 93.8248 131.074 91.1416 129.426 91.194C127.776 91.2463 124.991 95.7586 121.077 104.731C118.157 112.023 115.239 117.141 112.333 120.081C109.143 123.634 104.925 125.488 99.6829 125.654C92.4902 125.879 83.8622 122.138 73.7934 114.428C63.7274 106.72 53.744 96.8716 43.8406 84.88C33.9399 72.8939 26.2595 61.131 20.7967 49.6022C17.2679 42.2139 15.4166 35.8972 15.2514 30.6521C15.1577 27.6549 15.6012 25.0158 16.5792 22.7348C20.5323 14.8121 26.3284 10.7295 33.9702 10.4898C39.364 10.3218 48.3116 13.341 60.8046 19.5475C85.4985 32.1259 97.9557 41.8585 98.1705 48.751C98.2229 50.4011 97.6719 51.9162 96.5122 53.3019C94.7849 55.6049 92.6499 56.7977 90.099 56.8776C87.1018 56.9713 73.0799 52.3129 48.0334 42.8971L48.0416 43.123C48.1133 45.3709 53.4906 52.9658 64.1682 65.905C74.8512 78.8443 83.8787 88.1251 91.2533 93.7421C92.4929 94.9047 93.4103 95.4749 94.0081 95.4556C94.9061 95.4281 96.1981 93.5135 97.8785 89.7091C106.201 72.949 115.834 64.3954 126.774 64.0511C134.564 63.8059 142.933 67.5937 151.881 75.4146C160.853 84.1334 168.236 94.7008 174.026 107.119C178.203 115.99 180.382 123.194 180.555 128.739H180.558Z" fill="black"/>
</g>
</g>
<path d="M41.4483 56.1715C41.2043 57.0743 41.8143 58.5627 40.2039 58.5383C38.6667 58.5139 39.2035 57.0987 39.0083 56.1959C38.1299 55.9763 36.7147 56.5375 36.6903 55.0003C36.6659 53.3899 38.1299 53.9755 39.0815 53.7315C39.0815 53.3167 39.0815 52.9507 39.0815 52.5603C39.1303 51.8039 39.6183 51.3403 40.3015 51.3647C40.9359 51.3891 41.3507 51.8527 41.3995 52.5847C41.3995 52.6823 41.3995 52.7799 41.3995 52.8775C41.2531 53.6583 41.5947 53.9023 42.3511 53.8291C42.7171 53.8047 43.2051 53.8779 43.4247 54.1219C43.6687 54.3903 43.8639 54.9271 43.7663 55.2687C43.6687 55.6103 43.2295 55.9275 42.8635 56.0739C42.4487 56.2203 41.9607 56.1471 41.4727 56.1715H41.4483Z" fill="white"/>
<path d="M35.4459 48.1928C35.0311 48.1928 34.7627 47.9976 34.5919 47.534C34.3235 46.802 34.0307 46.07 33.7867 45.338C33.7135 45.1184 33.6159 45.0452 33.3963 45.0452C32.6643 45.0452 31.9323 45.0452 31.2003 45.0452C31.0051 45.0452 30.9075 45.1184 30.8343 45.2892C30.5659 46.0212 30.2975 46.7532 30.0291 47.4852C29.8095 48.0464 29.3215 48.3148 28.8091 48.1196C28.2967 47.9244 28.0771 47.412 28.2967 46.8264C29.3215 44.0204 30.3707 41.2388 31.3955 38.4328C31.5663 37.9692 31.8591 37.7496 32.2983 37.7496C32.7375 37.7496 33.0303 37.9692 33.2011 38.4084C34.2503 41.2144 35.2751 44.0204 36.3243 46.8264C36.6171 47.6072 36.0315 48.144 35.4459 48.144V48.1928ZM32.2983 41.3608C32.0543 42.0196 31.8347 42.5808 31.6151 43.1664H32.9571C32.7375 42.5808 32.5423 42.0196 32.2983 41.3608Z" fill="white"/>
<path d="M52.9407 45.07C56.3811 41.6296 59.8215 38.1892 63.2863 34.7244C62.6519 34.6268 61.9931 34.6024 61.3343 34.5536C58.0403 37.8476 54.7463 41.1416 51.4523 44.4356C51.2815 44.6064 51.1595 44.826 51.0863 45.07C50.7203 46.3632 50.3787 47.6808 50.0371 48.974C49.7687 49.9744 49.5003 50.9748 49.2319 51.9996C49.0855 52.6096 49.3539 53.0244 49.9639 53.0244C50.0615 53.0244 50.1835 52.9756 50.3299 52.9268C52.4039 52.3656 54.4535 51.8044 56.5275 51.292C57.1863 51.1212 57.7231 50.8284 58.1867 50.3404C61.0171 47.51 63.8231 44.6796 66.6535 41.8736V39.7508C63.4815 42.9228 60.3095 46.0948 57.1375 49.2668C55.7711 47.9004 54.3315 46.4608 52.9407 45.07ZM50.8423 51.3652C51.2815 49.706 51.6963 48.12 52.1111 46.6072C53.2579 47.754 54.4291 48.9008 55.6003 50.072C54.0875 50.4868 52.5259 50.9016 50.8423 51.3408V51.3652Z" fill="white"/>
<path d="M78.8048 28.3558C77.1456 26.6966 75.5108 25.0618 73.8516 23.4026C73.3148 22.8658 73.022 22.8658 72.4852 23.4026C71.558 24.3298 70.6308 25.257 69.7036 26.1842C67.5076 28.3802 65.2872 30.6006 63.0912 32.7966C63.7012 32.8698 64.3112 32.9674 64.8968 33.0894C66.7756 31.2106 68.6544 29.3318 70.5332 27.453C71.8996 28.8194 73.3392 30.259 74.73 31.6498C72.8024 33.5774 70.8748 35.505 68.9228 37.457C69.606 37.457 70.2892 37.5058 70.948 37.5546C73.5588 34.9438 76.1696 32.333 78.7804 29.7222C79.3172 29.1854 79.3172 28.8926 78.7804 28.3558H78.8048ZM75.9012 30.5762C74.486 29.161 73.0708 27.7214 71.68 26.3306C72.1436 25.867 72.6804 25.3302 73.1928 24.8422C74.5592 26.2086 75.9744 27.6238 77.414 29.0634C76.9016 29.5758 76.3892 30.0882 75.9012 30.5762Z" fill="white"/>
<path d="M70.9967 39.4577C71.2407 39.4577 71.3383 39.5553 71.3383 39.7993C71.3383 39.8481 71.3383 39.8969 71.3383 39.9457C71.3383 48.5101 71.3383 57.0745 71.3383 65.6145C71.3383 66.1757 71.3383 66.2001 70.8259 66.0049C68.7519 65.2973 66.6291 64.7605 64.4819 64.3945C62.9203 64.1505 61.3587 63.9309 59.7971 63.8333C57.9671 63.7357 56.1371 63.7357 54.3071 63.7845C53.3555 63.7845 52.3795 63.9797 51.4279 64.1017C51.3303 64.1017 51.2083 64.1017 51.1107 64.1017C51.1107 64.0773 51.1107 64.0285 51.1107 64.0041C51.6963 63.7845 52.2819 63.5161 52.8919 63.3453C53.9411 63.0525 54.9903 62.7841 56.0395 62.5645C57.5767 62.2473 59.1383 62.1497 60.7243 62.1985C62.5299 62.2473 64.3111 62.5401 66.0679 63.0037C67.4099 63.3697 68.6787 62.3937 68.6787 60.9785C68.6787 56.0009 68.6787 51.0233 68.6787 46.0457C68.6787 43.9961 68.6787 41.9221 68.6787 39.8725C68.0199 40.5313 67.3611 41.1901 66.7267 41.8489C66.7267 48.1197 66.7267 54.3661 66.7267 60.6369C66.7267 60.7101 66.7267 60.8077 66.7267 60.8809C66.7267 61.1005 66.6291 61.1737 66.4095 61.1249C65.7019 60.9541 65.0187 60.7833 64.3111 60.6857C63.2131 60.5393 62.1151 60.3685 61.0171 60.3441C59.6995 60.3197 58.3819 60.3441 57.0887 60.4905C55.7955 60.6369 54.5267 60.9297 53.2579 61.2469C51.6963 61.6373 50.2079 62.2473 48.7927 63.0037C48.1827 63.3209 47.5971 63.6869 47.0115 64.0041C46.9139 64.0529 46.8407 64.1017 46.6699 64.1993V63.8089C46.6699 55.6593 46.6699 47.4853 46.6699 39.3357C46.6699 38.9941 46.7675 38.7745 47.0603 38.5793C49.4027 36.9445 51.9403 35.7733 54.6975 35.1145C56.5275 34.6753 58.4063 34.4557 60.2851 34.4801C60.6511 34.4801 61.0171 34.5533 61.3831 34.5777C61.9687 33.9921 62.5543 33.4065 63.1399 32.8209C62.3835 32.7233 61.6515 32.6257 60.8951 32.6013C59.0651 32.5525 57.2595 32.6501 55.4539 32.9917C53.4287 33.3821 51.4767 33.9921 49.6223 34.8705C48.3291 35.4805 47.1091 36.1881 45.9379 36.9933C45.7915 37.0909 45.6695 37.1397 45.4743 37.0177C44.3275 36.3345 43.2051 35.5781 42.0095 34.9925C38.9595 33.4797 35.7143 32.6989 32.3227 32.5769C29.5411 32.4793 26.8327 32.7965 24.1731 33.6261C23.3435 33.8945 22.7335 34.6509 22.7335 35.5293C22.7335 36.0661 22.7335 36.6029 22.7335 37.1397C22.7335 37.3837 22.6603 37.4569 22.4163 37.4569C21.6355 37.4569 20.8547 37.5789 20.0739 37.5545C19.0491 37.5545 17.9999 38.4329 17.9999 39.7261C17.9999 44.0937 17.9999 48.4613 17.9999 52.8289C17.9999 57.2209 17.9999 61.6129 17.9999 66.0049C17.9999 67.4445 19.3663 68.4449 20.7327 67.9813C22.4895 67.3957 24.2951 66.8833 26.1007 66.5173C28.3943 66.0537 30.7367 65.7609 33.0791 65.6633C35.5435 65.5901 37.9835 65.6633 40.3991 66.1269C42.1315 66.4441 43.7907 66.9321 45.4011 67.6153C45.5231 67.6641 45.6939 67.6885 45.8159 67.6153C47.2555 67.0053 48.7439 66.5417 50.2811 66.2245C51.7939 65.9073 53.3067 65.7121 54.8439 65.6633C56.9423 65.5657 59.0407 65.5901 61.1147 65.8829C62.5787 66.0781 64.0671 66.2489 65.5067 66.5905C67.2147 66.9809 68.8739 67.4933 70.5575 67.9813C71.8995 68.3961 73.2659 67.4445 73.2659 66.0293C73.2659 57.3673 73.2659 48.7053 73.2659 40.0433C73.2659 39.8237 73.2659 39.6041 73.2659 39.3845C73.2171 38.5061 72.3875 37.6277 71.5335 37.5789C71.3383 37.5789 71.1675 37.5789 70.9723 37.5789C70.3623 38.1889 69.7523 38.7989 69.1423 39.4089C69.7523 39.4333 70.3867 39.4821 70.9967 39.4821V39.4577ZM39.8867 64.1505C37.5931 63.7601 35.2751 63.6869 32.9571 63.8089C31.1515 63.9065 29.3459 64.0773 27.5647 64.3457C25.4419 64.6385 23.3435 65.1265 21.2695 65.8097C20.9035 65.9317 20.5375 66.0293 20.1959 66.1513C20.0251 66.2001 19.9519 66.1513 19.9519 65.9805C19.9519 65.9073 19.9519 65.8341 19.9519 65.7609C19.9519 57.1477 19.9519 48.5101 19.9519 39.8969C19.9519 39.4821 19.9519 39.4821 20.3911 39.4821C21.0499 39.4821 21.6843 39.4333 22.3431 39.3845C22.5871 39.3845 22.6603 39.4577 22.6603 39.6773C22.6603 39.9457 22.6603 40.2141 22.6603 40.5069C22.6603 47.3389 22.6603 54.1709 22.6603 61.0029C22.6603 62.1985 23.6607 63.2477 24.9539 63.1257C25.3687 63.0769 25.7591 62.9305 26.1495 62.8573C27.3207 62.6621 28.5163 62.4425 29.6875 62.3205C31.4199 62.1497 33.1279 62.2961 34.8359 62.5157C36.2755 62.7109 39.0815 63.5161 40.2283 64.1749C40.1307 64.1749 40.0087 64.1749 39.9111 64.1749L39.8867 64.1505ZM44.6691 63.7601V64.2237C44.0347 63.8577 43.4979 63.5405 42.9611 63.2477C41.2775 62.3205 39.5207 61.6373 37.6663 61.1493C35.8851 60.6857 34.0551 60.3929 32.2007 60.3441C30.5415 60.2953 28.8823 60.3929 27.2231 60.6369C26.5155 60.7589 25.8079 60.9297 25.1003 61.0761C24.6367 61.1737 24.5879 61.1493 24.5879 60.6857C24.5879 52.4629 24.5879 44.2401 24.5879 36.0173C24.5879 35.6757 24.7506 35.4642 25.0759 35.3829C26.8815 34.8705 28.7115 34.5777 30.5659 34.5045C32.6887 34.4313 34.7871 34.6509 36.8367 35.1633C39.5939 35.8709 42.1315 37.0421 44.4495 38.7257C44.5715 38.7989 44.6447 39.0185 44.6447 39.1649C44.6447 40.4581 44.6447 41.7757 44.6447 43.0933C44.6447 49.9741 44.6447 56.8549 44.6447 63.7601H44.6691Z" fill="white"/>
<path d="M63.2619 34.724C63.7987 34.1872 64.3355 33.6504 64.8723 33.1136C64.2623 32.9916 63.6767 32.894 63.0667 32.8208C62.4811 33.4064 61.8955 33.992 61.3099 34.5776C61.9687 34.6264 62.6031 34.6508 63.2619 34.7484V34.724Z" fill="white"/>
<path d="M66.6535 39.7506V41.8734C67.3123 41.2146 67.9711 40.5558 68.6055 39.897V39.775C68.6055 39.3602 68.6055 39.3602 69.0203 39.3846C69.0447 39.3846 69.0935 39.3846 69.1179 39.3846C69.7279 38.7746 70.3379 38.1646 70.9479 37.5546C70.2647 37.5302 69.5815 37.4814 68.9227 37.457C68.1663 38.2134 67.4099 38.9698 66.6535 39.7262V39.7506Z" fill="white"/>
</g>
<defs>
<filter id="filter0_d_339_711" x="0.1812" y="0" width="97.1077" height="97.0966" filterUnits="userSpaceOnUse" color-interpolation-filters="sRGB">
<feFlood flood-opacity="0" result="BackgroundImageFix"/>
<feColorMatrix in="SourceAlpha" type="matrix" values="0 0 0 0 0 0 0 0 0 0 0 0 0 0 0 0 0 0 127 0" result="hardAlpha"/>
<feOffset dy="2.8188"/>
<feGaussianBlur stdDeviation="1.4094"/>
<feComposite in2="hardAlpha" operator="out"/>
<feColorMatrix type="matrix" values="0 0 0 0 0 0 0 0 0 0 0 0 0 0 0 0 0 0 0.25 0"/>
<feBlend mode="normal" in2="BackgroundImageFix" result="effect1_dropShadow_339_711"/>
<feBlend mode="normal" in="SourceGraphic" in2="effect1_dropShadow_339_711" result="shape"/>
</filter>
</defs>
</svg>
