<svg width="37" height="37" viewBox="0 0 37 37" fill="none" xmlns="http://www.w3.org/2000/svg">
<circle cx="18.5" cy="18.5" r="18.5" fill="#39A900"/>
<path d="M15.2793 12.8046C14.6044 12.1356 14.0402 11.5825 13.4833 11.0233C12.9243 10.462 12.8653 9.81365 13.3218 9.34139C13.8042 8.84325 14.4512 8.89089 15.0433 9.48017C17.9832 12.4069 20.9232 15.3347 23.859 18.2655C24.6944 19.0992 24.6954 20.0127 23.8662 20.8422C21.9304 22.7768 19.9915 24.7093 18.0495 26.6377C17.1965 27.4848 16.2855 27.4796 15.4243 26.6242C13.4957 24.7062 11.5692 22.7861 9.6448 20.865C8.78766 20.0096 8.78456 19.1096 9.63859 18.2552C11.3425 16.5515 13.0495 14.85 14.7617 13.1546C14.8942 13.0231 15.0764 12.9403 15.2773 12.8056L15.2793 12.8046ZM11.6241 19.5207H21.8165C20.1157 17.8254 18.3932 16.1083 16.7224 14.443C15.0526 16.1062 13.3383 17.814 11.6251 19.5207H11.6241Z" fill="white"/>
<path d="M26.6191 21.1034C27.5725 22.2198 28.3768 23.1861 28.7878 24.3967C29.177 25.5442 28.5662 26.7331 27.4255 27.1339C26.2992 27.5296 25.0756 26.9527 24.6408 25.829C24.4089 25.2294 24.4348 24.6246 24.7464 24.0881C25.3209 23.1011 25.9576 22.1504 26.6191 21.1044V21.1034Z" fill="white"/>
</svg>
