<svg width="103" height="95" viewBox="0 0 103 95" fill="none" xmlns="http://www.w3.org/2000/svg">
<path d="M32.3386 19.5936C28.8627 16.1481 25.9571 13.3 23.0889 10.4199C20.2101 7.52908 19.9062 4.19027 22.2573 1.75817C24.7416 -0.807274 28.0736 -0.561931 31.1231 2.47287C46.2638 17.5455 61.4045 32.6235 76.5239 47.7175C80.8262 52.011 80.8315 56.7152 76.5612 60.9874C66.5918 70.9505 56.6064 80.9029 46.605 90.834C42.2121 95.1968 37.5206 95.1702 33.085 90.7646C23.1529 80.8869 13.2315 70.9985 3.32072 61.1047C-1.09354 56.6992 -1.10954 52.0643 3.28873 47.6641C12.0639 38.8904 20.8551 30.1274 29.673 21.3963C30.3554 20.719 31.2937 20.2923 32.328 19.5989L32.3386 19.5936ZM13.514 54.1817H66.0053C57.2461 45.4507 48.375 36.6077 39.7704 28.0313C31.1711 36.597 22.3426 45.392 13.5194 54.1817H13.514Z" fill="#39A900"/>
<path d="M90.6197 62.3323C95.5298 68.0819 99.6722 73.0581 101.789 79.293C103.793 85.2026 100.648 91.3255 94.7728 93.3896C88.9724 95.427 82.6709 92.4562 80.4318 86.6693C79.2376 83.5812 79.3708 80.4664 80.9755 77.7036C83.9344 72.6207 87.2131 67.7245 90.6197 62.3376V62.3323Z" fill="#39A900"/>
</svg>
