<svg width="37" height="47" viewBox="0 0 37 47" fill="none" xmlns="http://www.w3.org/2000/svg">
<path d="M31.2412 20.7242C31.2412 26.087 31.2412 31.4499 31.2412 36.8127C31.2412 39.6654 29.6161 41.4554 27.0158 41.4554C19.3999 41.4554 11.784 41.4554 4.16805 41.4554C1.66339 41.4554 0 39.6445 0 36.9106C0 26.073 0 15.2425 0 4.40494C0 2.3493 1.05157 0.825053 2.86155 0.307647C3.47337 0.132848 4.12343 0.0209764 4.75438 0.0209764C12.1026 4.80569e-07 19.4509 0.0209759 26.7991 0C28.2713 0 29.5268 0.405535 30.4509 1.72702C31.0245 2.55207 31.254 3.49598 31.254 4.5238C31.2476 9.9216 31.254 15.3194 31.254 20.7242H31.2412ZM29.0871 20.7801C29.0871 15.3823 29.0871 9.97754 29.0871 4.57974C29.0871 3.15338 28.3733 2.39125 27.0795 2.39125C19.6612 2.39125 12.2492 2.39125 4.83085 2.39125C4.56318 2.39125 4.28913 2.39125 4.02146 2.40524C2.82331 2.48914 2.17962 3.23728 2.16687 4.55177C2.1605 5.36284 2.16687 6.1809 2.16687 6.99197C2.16687 16.8856 2.17962 26.7792 2.14775 36.6729C2.14775 38.0013 2.78507 39.0991 4.33375 39.0921C11.8668 39.0431 19.3999 39.0711 26.933 39.0711C27.0987 39.0711 27.2835 39.1131 27.4364 39.0571C27.7933 38.9243 28.1821 38.8054 28.4753 38.5607C29.0042 38.1272 29.0935 37.463 29.0871 36.7638C29.0807 31.4359 29.0871 26.115 29.0871 20.7871V20.7801Z" fill="#009C00"/>
<path d="M32.586 7.2158V4.90845C33.8861 4.99235 34.8421 5.6496 35.5622 6.75433C36.053 7.50247 36.2505 8.35549 36.2505 9.26445C36.2505 18.7526 36.2378 28.2337 36.2378 37.7218C36.2378 39.0922 36.2633 40.4556 36.2505 41.8261C36.2314 44.497 34.568 46.3079 32.1335 46.3149C24.4666 46.3149 16.7997 46.3149 9.13276 46.3149C7.31641 46.3149 5.84422 45.2591 5.28338 43.5671C5.21965 43.3853 5.18778 43.1895 5.11768 42.9028C5.86971 42.9028 6.55801 42.8888 7.24631 42.9168C7.34828 42.9168 7.463 43.0706 7.54585 43.1755C7.94098 43.6929 8.43809 43.9376 9.04991 43.9376C16.7678 43.9376 24.4857 43.9376 32.2036 43.9376C33.3954 43.9376 34.09 43.1056 34.09 41.7212C34.09 34.4565 34.09 27.1849 34.09 19.9202C34.09 16.5151 34.09 13.117 34.09 9.71193C34.09 8.25061 33.8033 7.77516 32.586 7.2158Z" fill="#009C00"/>
<path d="M8.72522 13.3267C7.54618 13.3267 6.36715 13.3127 5.18811 13.3267C4.75474 13.3267 4.58266 13.1589 4.58904 12.6765C4.60178 10.8865 4.60178 9.08957 4.58904 7.29963C4.58904 6.85214 4.74837 6.66336 5.15625 6.67035C7.53344 6.67734 9.90425 6.67734 12.2814 6.67035C12.6702 6.67035 12.8232 6.84515 12.8232 7.27166C12.8168 9.08258 12.8104 10.8935 12.8232 12.7044C12.8232 13.1589 12.6638 13.3337 12.2559 13.3267C11.0769 13.3127 9.89788 13.3267 8.71884 13.3267H8.72522Z" fill="#009C00"/>
<path d="M15.589 22.157C12.173 22.157 8.75057 22.157 5.33455 22.157C4.62713 22.157 4.59527 22.1221 4.60164 21.339C4.60164 19.6259 4.45506 19.8497 5.94 19.8497C12.5617 19.8497 19.1771 19.8497 25.7988 19.8497C26.6082 19.8497 26.6082 19.8497 26.6082 20.7517C26.6082 22.3598 26.7229 22.157 25.3526 22.157C22.1023 22.157 18.852 22.157 15.6017 22.157H15.589Z" fill="#009C00"/>
<path d="M15.5698 33.0158C19.0049 33.0158 22.4464 33.0158 25.8815 33.0158C26.5635 33.0158 26.5953 33.0508 26.5953 33.7989C26.5953 35.5189 26.7483 35.3162 25.2251 35.3162C18.6161 35.3162 12.0136 35.3162 5.40459 35.3162C4.60795 35.3162 4.58883 35.2952 4.58883 34.4072C4.58883 32.827 4.44862 33.0158 5.85708 33.0158C9.09465 33.0158 12.3258 33.0158 15.5634 33.0158H15.5698Z" fill="#009C00"/>
<path d="M15.659 28.6243C19.0623 28.6243 22.4655 28.6243 25.8688 28.6243C26.5571 28.6243 26.6017 28.6663 26.5953 29.3934C26.589 31.1414 26.7738 30.9177 25.2442 30.9177C18.6544 30.9247 12.0709 30.9177 5.48109 30.9177C4.89476 30.9177 4.59947 30.6054 4.59522 29.9808C4.59522 28.4495 4.49962 28.6243 5.85073 28.6243C9.12016 28.6243 12.3896 28.6243 15.659 28.6243Z" fill="#009C00"/>
<path d="M15.6207 15.4734C19.0431 15.4734 22.4655 15.4734 25.8815 15.4734C26.5634 15.4734 26.5953 15.5083 26.5953 16.2565C26.5889 17.9485 26.7674 17.7737 25.2251 17.7737C18.6352 17.7737 12.0454 17.7737 5.45554 17.7737C4.60791 17.7737 4.58879 17.7598 4.58879 16.8578C4.58879 15.2916 4.44221 15.4664 5.85705 15.4664C9.10736 15.4664 12.364 15.4664 15.6144 15.4664L15.6207 15.4734Z" fill="#009C00"/>
<path d="M15.6212 26.5201C12.186 26.5201 8.74454 26.5131 5.30941 26.5271C4.79319 26.5271 4.60199 26.3663 4.59562 25.7789C4.57013 24.2197 4.54464 24.2197 5.97222 24.2197C12.5748 24.2197 19.1838 24.2197 25.7864 24.2197C26.5639 24.2197 26.5958 24.2477 26.5958 25.0797C26.5894 26.7298 26.7615 26.5201 25.2765 26.5271C22.0581 26.5271 18.8396 26.5271 15.6212 26.5271V26.5201Z" fill="#009C00"/>
<path d="M20.6297 13.3827C18.8771 13.3827 17.1308 13.3827 15.3782 13.3827C14.7791 13.3827 14.7026 13.3058 14.709 12.6555C14.709 10.8586 14.5433 11.0963 16.1366 11.0893C19.3869 11.0823 22.6372 11.0893 25.8875 11.0893C26.5695 11.0893 26.6077 11.1243 26.6013 11.8724C26.5886 13.5855 26.7925 13.3687 25.2375 13.3757C23.7079 13.3827 22.172 13.3757 20.6424 13.3757L20.6297 13.3827Z" fill="#009C00"/>
<path d="M20.6303 8.98424C18.8776 8.98424 17.125 8.98424 15.3788 8.98424C14.7669 8.98424 14.7096 8.92132 14.7096 8.25708C14.7096 6.48112 14.5566 6.68389 16.1372 6.68389C19.3684 6.68389 22.6059 6.68389 25.8371 6.68389C26.5509 6.68389 26.6019 6.73283 26.5955 7.48796C26.5828 9.22896 26.7804 8.97725 25.2317 8.99124C23.7021 9.00522 22.1662 8.99124 20.6366 8.99124L20.6303 8.98424Z" fill="#009C00"/>
</svg>
