<svg width="60" height="24" viewBox="0 0 60 24" fill="none" xmlns="http://www.w3.org/2000/svg">
<path d="M43.8363 14.5371C44.6256 16.0443 45.4207 17.5458 46.2041 19.053C46.663 19.9369 46.9583 20.8793 45.8504 21.453C44.8185 21.9886 44.231 21.2569 43.7837 20.4228C43.0939 19.1321 42.3748 17.8589 41.7346 16.5448C41.3283 15.7136 40.8664 15.4473 39.8959 15.6873C37.4434 16.2931 34.9616 16.7907 32.474 17.2355C31.6526 17.3819 31.4188 17.7624 31.4275 18.497C31.4421 19.7174 31.4334 20.9349 31.4275 22.1554C31.4217 23.0773 31.1352 23.8558 30.0712 23.8793C28.9955 23.8997 28.6944 23.13 28.6798 22.2022C28.6622 20.9818 28.6447 19.7643 28.6651 18.5438C28.6798 17.7214 28.3787 17.3789 27.5046 17.2326C24.9644 16.8053 22.4359 16.296 19.9307 15.7019C18.9632 15.4736 18.3902 15.5731 17.9459 16.5273C17.3087 17.8941 16.5691 19.2169 15.8354 20.5369C15.3998 21.3184 14.7714 21.9242 13.8213 21.4208C12.8772 20.9232 12.9941 20.0599 13.3946 19.255C14.1984 17.6511 15.0491 16.0707 15.9435 14.3615C14.4381 13.5332 13.0233 12.8015 11.6553 11.9849C10.486 11.2854 9.33721 10.5421 8.25272 9.71671C7.51023 9.15185 6.98699 9.2016 6.39066 9.87768C5.45525 10.9372 4.47599 11.9557 3.51135 12.9888C2.81564 13.7322 2.03515 14.5137 1.05005 13.5537C0.0737101 12.6054 0.83958 11.783 1.51775 11.0455C2.34501 10.1499 3.14303 9.22502 4.02582 8.38797C4.87646 7.58311 4.96123 6.97727 4.01121 6.13437C2.85071 5.10415 1.83346 3.90711 0.772351 2.76567C0.0971007 2.03984 -0.449533 1.22328 0.541418 0.383298C1.50314 -0.430339 2.25146 0.193059 2.90333 0.939381C6.49589 5.06317 10.6351 8.47284 15.5518 10.9284C27.8145 17.057 39.2587 15.1722 49.9837 7.28165C52.4743 5.44951 54.538 3.04372 56.8444 0.956941C57.3063 0.541342 57.9932 0.128671 58.5691 0.140378C59.6623 0.163792 60.0219 1.51302 59.1742 2.49349C58.0312 3.8193 56.8239 5.10415 55.5524 6.30704C54.7982 7.02117 54.7982 7.51287 55.5173 8.22114C56.5579 9.2455 57.5284 10.343 58.5077 11.4289C59.1303 12.1196 59.3759 12.9186 58.6129 13.6269C57.8149 14.3673 57.0753 13.9283 56.4527 13.2756C55.374 12.1488 54.3539 10.9635 53.2314 9.88354C52.9244 9.58793 52.1849 9.3216 51.9101 9.4855C49.2442 11.0777 46.6338 12.7635 43.8363 14.5312V14.5371Z" fill="white"/>
</svg>
