<svg width="138" height="28" viewBox="0 0 138 28" fill="none" xmlns="http://www.w3.org/2000/svg">
<g clip-path="url(#clip0_131_524)">
<mask id="mask0_131_524" style="mask-type:luminance" maskUnits="userSpaceOnUse" x="0" y="0" width="28" height="28">
<path d="M6.20365 21.2374C6.12293 21.2166 6.05605 21.1681 6.01223 21.0965C5.97072 21.0248 5.95688 20.9417 5.97764 20.8631C6.01223 20.7222 6.13907 20.6274 6.27744 20.6274C6.30281 20.6274 6.32818 20.6298 6.35124 20.6367C6.51729 20.6783 6.61876 20.8469 6.57725 21.0133C6.55649 21.0941 6.50806 21.1612 6.43657 21.205C6.38814 21.2351 6.33279 21.2489 6.27744 21.2489C6.25208 21.2489 6.22671 21.2466 6.20134 21.2397M20.6289 21.2027C20.5574 21.1612 20.5089 21.0918 20.4882 21.0133C20.4467 20.8469 20.5481 20.6783 20.7142 20.6367C20.7396 20.6298 20.7649 20.6274 20.7903 20.6274C20.8456 20.6274 20.901 20.6436 20.9494 20.6713C21.0209 20.7129 21.0693 20.7822 21.0901 20.8631C21.1316 21.0295 21.0301 21.1981 20.8641 21.2374C20.8387 21.2443 20.8133 21.2466 20.788 21.2466C20.7326 21.2466 20.6773 21.2305 20.6289 21.2027ZM12.9054 20.103C12.9054 19.7587 13.1845 19.4769 13.5304 19.4769C13.8763 19.4769 14.1554 19.7564 14.1554 20.103C14.1554 20.4495 13.8763 20.7291 13.5304 20.7291C13.1845 20.7291 12.9054 20.4495 12.9054 20.103ZM7.68883 12.0373C7.68883 11.8663 7.8272 11.7277 7.99786 11.7277C8.16852 11.7277 8.30689 11.8663 8.30689 12.0373C8.30689 12.2083 8.16852 12.3469 7.99786 12.3469C7.8272 12.3469 7.68883 12.2083 7.68883 12.0373ZM18.7539 12.0373C18.7539 11.8663 18.8923 11.7277 19.063 11.7277C19.2336 11.7277 19.372 11.8663 19.372 12.0373C19.372 12.2083 19.2336 12.3469 19.063 12.3469C18.8923 12.3469 18.7539 12.2083 18.7539 12.0373ZM6.54266 14.149C5.7009 12.5664 5.664 10.6949 6.42735 9.08458C8.18697 9.34797 9.71597 10.4223 10.5577 12.005C11.3142 13.4259 11.4179 15.0824 10.8783 16.5727L8.85576 12.772C9.02642 12.5733 9.1302 12.3169 9.1302 12.035C9.1302 11.4089 8.62284 10.9006 7.99786 10.9006C7.37288 10.9006 6.86552 11.4089 6.86552 12.035C6.86552 12.6611 7.37288 13.1694 7.99786 13.1694C8.04168 13.1694 8.0855 13.1648 8.12931 13.1602L10.1541 16.9608C8.61592 16.5819 7.29909 15.5699 6.54266 14.1467M16.5031 12.005C17.3448 10.4246 18.8738 9.34797 20.6335 9.08458C21.3991 10.6926 21.3599 12.5664 20.5205 14.149C19.764 15.5722 18.4472 16.5842 16.909 16.9631L18.9338 13.1602C18.9776 13.1648 19.0214 13.1694 19.0653 13.1694C19.6879 13.1694 20.1953 12.6611 20.1953 12.035C20.1953 11.4089 19.6879 10.9006 19.0653 10.9006C18.4426 10.9006 17.9329 11.4089 17.9329 12.035C17.9329 12.3169 18.0367 12.5733 18.2074 12.772L16.1848 16.5727C15.6429 15.0824 15.749 13.4259 16.5054 12.005M20.4259 3.5904C20.4259 3.31777 20.6473 3.09596 20.9194 3.09596C21.1916 3.09596 21.4107 3.31777 21.4107 3.5904C21.4107 3.68743 21.3807 3.77985 21.3322 3.85609C21.3299 3.8584 21.3276 3.86071 21.3253 3.86302C21.3207 3.86996 21.3184 3.87689 21.3138 3.88382C21.2238 4.00396 21.0809 4.08483 20.9194 4.08483C20.6473 4.08483 20.4259 3.86302 20.4259 3.5904ZM12.4119 1.31694C12.4119 1.04431 12.6333 0.82251 12.9054 0.82251C13.1776 0.82251 13.3966 1.04431 13.3966 1.31694C13.3966 1.58957 13.1753 1.81137 12.9054 1.81137C12.6356 1.81137 12.4119 1.58957 12.4119 1.31694ZM11.6232 1.02814C4.97445 1.97079 0 7.67753 0 14.4448C0 21.919 6.06989 28 13.5327 28C13.7656 28 13.9916 27.9931 14.2269 27.9815C21.4245 27.6188 27.0631 21.6741 27.0631 14.4471C27.0631 10.383 25.2827 6.59856 22.1648 4.01089C22.2086 3.8792 22.234 3.73826 22.234 3.59271C22.234 2.86723 21.6436 2.27577 20.9194 2.27577C20.1953 2.27577 19.6049 2.86492 19.6049 3.59271C19.6049 4.32049 20.1953 4.90965 20.9194 4.90965C21.1985 4.90965 21.4591 4.81954 21.6713 4.66936C24.5794 7.09993 26.2398 10.6418 26.2398 14.4471C26.2398 20.8285 21.5582 26.147 15.38 27.0435C16.3901 26.1632 17.5224 24.8209 17.9145 23.0118C18.4772 22.3002 19.1321 21.8266 19.8678 21.6001C19.9554 21.7249 20.0708 21.8289 20.2045 21.912C20.3821 22.0206 20.5827 22.0738 20.7857 22.0738C20.8779 22.0738 20.9702 22.0622 21.0601 22.0391C21.6643 21.8889 22.0356 21.2721 21.8857 20.6667C21.8119 20.3733 21.6297 20.1238 21.3714 19.969C21.1132 19.8142 20.8087 19.768 20.5158 19.8396C20.0477 19.9551 19.7225 20.3502 19.6672 20.803C19.086 20.9763 18.5487 21.2721 18.0598 21.6833C18.0598 21.1565 18.0021 20.602 17.8614 20.0129C17.6885 19.2874 17.3541 18.5527 16.8698 17.8203C18.7332 17.4344 20.3383 16.2446 21.2446 14.5418C22.2593 12.6334 22.2547 10.3576 21.2308 8.45152C21.1524 8.30597 20.9955 8.22048 20.8272 8.23665C18.6801 8.45152 16.7914 9.71763 15.7766 11.6237C14.7665 13.5229 14.7665 15.7894 15.7766 17.6909C15.7905 17.7232 15.8089 17.7533 15.832 17.781C16.457 18.5989 16.8698 19.4145 17.0589 20.2046C17.9329 23.8782 15.2969 26.1932 13.9409 27.1151V21.4962C14.5382 21.3183 14.9741 20.7638 14.9741 20.1076C14.9741 19.3082 14.326 18.659 13.5281 18.659C12.7302 18.659 12.0821 19.3082 12.0821 20.1076C12.0821 20.7638 12.5203 21.3183 13.1199 21.4962V27.1174C11.7639 26.1979 9.12559 23.8805 9.99733 20.2046C10.1864 19.4145 10.5992 18.5989 11.2242 17.7833C11.2473 17.7556 11.2657 17.7232 11.2819 17.6909C12.292 15.7894 12.292 13.5252 11.2819 11.6237C10.2671 9.71763 8.38069 8.45152 6.23132 8.23665C6.06758 8.22279 5.90845 8.30597 5.82774 8.45152C4.80379 10.3576 4.79918 12.6334 5.8139 14.5418C6.72023 16.2446 8.32534 17.4344 10.1864 17.8203C9.70213 18.5527 9.36774 19.2874 9.19477 20.0129C9.05409 20.5997 8.99644 21.1565 8.99644 21.681C8.50753 21.2697 7.97249 20.9763 7.39364 20.803C7.33829 20.3502 7.01081 19.9574 6.54496 19.8396C5.94074 19.6894 5.32499 20.0591 5.17278 20.6667C5.09898 20.9601 5.14511 21.2651 5.30193 21.5239C5.45875 21.7827 5.70551 21.9652 5.9984 22.0391C6.09064 22.0622 6.18058 22.0738 6.27283 22.0738C6.47578 22.0738 6.67641 22.0183 6.85399 21.912C6.98775 21.8312 7.10075 21.7249 7.19069 21.6001C7.92406 21.8266 8.57671 22.3002 9.13942 23.0072C9.53148 24.8162 10.6638 26.1632 11.6739 27.0435C5.54638 26.1378 0.821003 20.8354 0.821003 14.4448C0.821003 8.05413 5.47489 2.7494 11.7039 1.84834C11.9068 2.31042 12.3704 2.63388 12.9054 2.63388C13.6296 2.63388 14.22 2.04241 14.22 1.31694C14.22 0.591468 13.6296 0 12.9054 0C12.2805 0 11.7569 0.44129 11.6232 1.02814Z" fill="white"/>
</mask>
<g mask="url(#mask0_131_524)">
<path d="M27.0631 0H0V28H27.0631V0Z" fill="white"/>
</g>
<path d="M82.4844 6.13931H85.4064C85.4064 6.24328 85.4064 6.34956 85.4064 6.45584C85.411 10.8225 85.4133 15.1869 85.4179 19.5536C85.4179 20.4131 85.5148 21.261 85.7754 22.0835C86.3242 23.8117 87.4681 24.9531 89.1747 25.5469C91.5847 26.3855 93.8516 26.1083 95.9618 24.6712C97.6938 23.4906 98.5378 21.8155 98.547 19.7338C98.5632 15.284 98.5516 10.8318 98.5516 6.3819V6.05151C99.0359 6.05151 99.5064 6.03072 99.9746 6.06075C100.198 6.07462 100.307 6.27562 100.33 6.49742C100.339 6.58984 100.33 6.68457 100.33 6.77698C100.33 11.6081 100.33 16.4415 100.33 21.2726V21.5152C100.394 21.462 100.438 21.4343 100.473 21.3973C104.705 16.6402 108.934 11.8807 113.164 7.12124C113.39 6.86709 113.613 6.61526 113.837 6.36111C114.026 6.14393 114.261 6.03996 114.552 6.04458C115.05 6.05382 115.551 6.04689 116.049 6.04689C116.45 6.04689 116.563 6.1601 116.563 6.55749C116.563 12.2203 116.565 17.8832 116.57 23.546C116.57 24.521 116.575 25.496 116.577 26.471C116.577 26.5727 116.577 26.6743 116.568 26.776C116.524 27.178 116.372 27.2982 115.966 27.2866C115.594 27.2774 115.223 27.2866 114.829 27.2866V10.4991C114.792 10.469 114.753 10.439 114.716 10.409C114.688 10.4783 114.679 10.5638 114.633 10.6146C112.882 12.6039 111.127 14.5885 109.375 16.5778C107.673 18.5093 105.973 20.4431 104.276 22.377C102.984 23.8464 101.697 25.3181 100.41 26.7899C100.088 27.1595 99.7094 27.3582 99.2043 27.2797C99.0152 27.2496 98.8192 27.275 98.607 27.275V24.7474C98.5032 24.8399 98.441 24.8861 98.3879 24.9415C96.7528 26.6351 94.7303 27.4807 92.4126 27.6724C90.6506 27.818 88.9141 27.721 87.249 27.0532C85.6162 26.3994 84.2625 25.4059 83.3815 23.8441C82.7496 22.7258 82.4821 21.5059 82.4752 20.2375C82.4568 15.746 82.4568 11.2523 82.4521 6.76081C82.4521 6.56674 82.4729 6.37266 82.4867 6.14162L82.4844 6.13931Z" fill="white"/>
<path d="M48.4034 6.09766C48.5026 6.71916 48.4242 7.19049 48.0759 7.63871C44.8427 11.7952 41.6232 15.9632 38.3969 20.1219C36.598 22.4416 34.7877 24.7543 32.9866 27.074C32.8159 27.2958 32.5991 27.4067 32.3362 27.4044C31.642 27.4021 30.9502 27.3789 30.256 27.3651C30.0808 27.3605 30.0323 27.2426 30.0139 27.0971C29.9585 26.6627 30.0692 26.2769 30.3367 25.9303C33.5377 21.7923 36.7364 17.6521 39.9351 13.5141C41.6371 11.3123 43.3506 9.11969 45.0387 6.90861C45.4838 6.32639 46.0119 6.0399 46.7499 6.08842C47.2965 6.12538 47.8453 6.09535 48.4011 6.09535L48.4034 6.09766Z" fill="white"/>
<path d="M69.1338 25.3712C69.5743 24.9114 69.9986 24.4655 70.4414 24.0011C70.7297 24.276 70.9949 24.551 71.2808 24.7982C71.6014 25.0731 71.9197 25.3596 72.2748 25.5814C73.6032 26.4062 75.1299 26.0943 76.0339 24.8121C76.705 23.8625 77.0878 22.7881 77.1155 21.6329C77.1801 18.9967 77.1893 16.3605 77.2101 13.7243C77.2101 13.4748 77.27 13.2784 77.4268 13.0774C78.3332 11.9291 79.2257 10.7693 80.1551 9.57251C80.1689 9.67648 80.185 9.73424 80.185 9.79431C80.1804 13.4309 80.1897 17.0675 80.1643 20.7041C80.1551 21.9587 79.8922 23.1763 79.3548 24.3199C77.9296 27.3581 74.551 28.5873 71.4815 27.1849C70.5659 26.7667 69.7911 26.1683 69.1338 25.3666V25.3712Z" fill="white"/>
<path d="M117.072 27.275C117.315 26.7136 117.527 26.2007 117.753 25.6924C120.052 20.554 122.356 15.4179 124.658 10.2819C125.22 9.02499 125.792 7.77274 126.35 6.51356C126.5 6.17624 126.717 6.01451 127.095 6.04223C127.432 6.06534 127.771 6.0561 128.11 6.04223C128.421 6.03068 128.631 6.17624 128.753 6.44425C129.217 7.46776 129.674 8.4959 130.126 9.52635C130.151 9.58642 130.142 9.69501 130.102 9.74584C129.427 10.6238 128.746 11.4971 128.064 12.3728C128.055 12.3843 128.034 12.389 128.013 12.3982C127.598 11.5018 127.181 10.6053 126.74 9.65342C126.664 9.81053 126.604 9.92605 126.551 10.0439C124.81 13.9323 123.069 17.8231 121.325 21.7115C120.576 23.3843 119.826 25.0593 119.074 26.7321C118.837 27.2588 118.774 27.2889 118.209 27.2773C117.857 27.2681 117.501 27.2773 117.068 27.2773L117.072 27.275Z" fill="white"/>
<path d="M130.818 11.0674C133.232 16.4576 135.64 21.827 138.066 27.2426C137.87 27.2565 137.748 27.2727 137.628 27.2727C136.883 27.2727 136.138 27.2496 135.395 27.2704C135.026 27.2796 134.835 27.1017 134.697 26.8037C134.362 26.0828 134.025 25.3643 133.691 24.6434C132.056 21.1177 130.423 17.592 128.783 14.0686C128.698 13.8838 128.7 13.7613 128.83 13.5996C129.462 12.8048 130.08 12.0008 130.705 11.1991C130.735 11.1598 130.769 11.1251 130.82 11.0697L130.818 11.0674Z" fill="white"/>
<path d="M49.0398 27.275C49.2819 26.7136 49.4941 26.2007 49.7201 25.6924C52.0194 20.554 54.3232 15.4179 56.6248 10.2819C57.1875 9.02499 57.7595 7.77274 58.3176 6.51356C58.4675 6.17624 58.6843 6.01451 59.0625 6.04223C59.3992 6.06534 59.7382 6.0561 60.0772 6.04223C60.3885 6.03068 60.5984 6.17624 60.7206 6.44425C61.1842 7.46776 61.6408 8.4959 62.0928 9.52635C62.1182 9.58642 62.1089 9.69501 62.0697 9.74584C61.394 10.6238 60.7137 11.4971 60.0311 12.3728C60.0218 12.3843 60.0011 12.389 59.9803 12.3982C59.5652 11.5018 59.1478 10.6053 58.7073 9.65342C58.6312 9.81053 58.5712 9.92605 58.5182 10.0439C56.777 13.9323 55.0359 17.8231 53.2924 21.7115C52.5429 23.3843 51.7934 25.0593 51.0415 26.7321C50.804 27.2588 50.7417 27.2889 50.1767 27.2773C49.8239 27.2681 49.4687 27.2773 49.0352 27.2773L49.0398 27.275Z" fill="white"/>
<path d="M62.7848 11.0674C65.1994 16.4576 67.6071 21.827 70.0332 27.2426C69.8372 27.2565 69.7149 27.2727 69.595 27.2727C68.8501 27.2727 68.1052 27.2496 67.3626 27.2704C66.9936 27.2796 66.8022 27.1017 66.6638 26.8037C66.3294 26.0828 65.9927 25.3643 65.6584 24.6434C64.0233 21.1177 62.3905 17.592 60.7508 14.0686C60.6655 13.8838 60.6678 13.7613 60.7969 13.5996C61.4288 12.8048 62.0469 12.0008 62.6718 11.1991C62.7018 11.1598 62.7364 11.1251 62.7871 11.0697L62.7848 11.0674Z" fill="white"/>
<path d="M34.2388 27.3674C34.6954 26.7806 35.1105 26.2376 35.5372 25.7062C35.581 25.6508 35.7009 25.6346 35.7862 25.6346C36.6234 25.63 37.4605 25.63 38.2977 25.63C41.6808 25.6277 45.064 25.6253 48.4495 25.6207C48.9661 25.6207 49.1068 25.764 49.0975 26.2861C49.0952 26.464 49.086 26.6419 49.0676 26.8198C49.0307 27.178 48.8485 27.3466 48.4864 27.3605C48.2581 27.3697 48.0298 27.3697 47.8015 27.3697C43.3782 27.3697 38.9526 27.3697 34.5294 27.3697C34.4532 27.3697 34.3794 27.3697 34.2411 27.3697L34.2388 27.3674Z" fill="white"/>
<path d="M44.1117 6.20398C43.6804 6.75848 43.2884 7.27833 42.8756 7.782C42.8179 7.85362 42.6703 7.88366 42.5642 7.88366C40.3065 7.88828 38.0487 7.88828 35.7886 7.88828C34.1997 7.88828 32.6084 7.88828 31.0194 7.88597C30.6228 7.88597 30.6182 7.87904 30.6182 7.49319C30.6182 7.07039 30.6182 6.64758 30.6182 6.20629H44.1094L44.1117 6.20398Z" fill="white"/>
<path d="M77.2744 11.0535V6.15308H80.1825C80.1825 6.52967 80.1871 6.89934 80.1779 7.26901C80.1779 7.32908 80.1341 7.39608 80.0949 7.44691C79.1932 8.60905 78.2891 9.7712 77.3851 10.9333C77.362 10.9634 77.3321 10.9911 77.2744 11.0535Z" fill="white"/>
</g>
<defs>
<clipPath id="clip0_131_524">
<rect width="138" height="28" fill="white"/>
</clipPath>
</defs>
</svg>
